# AST/ASF file generated using VICON BodyLanguage
# -----------------------------------------------
:version 1.10
:name VICON
:units
  mass 1.0
  length 0.45
  angle deg
:documentation
   .ast/.asf automatically generated from VICON data using
   VICON BodyBuilder and BodyLanguage model FoxedUp or BRILLIANT.MOD
:root
   order TX TY TZ RX RY RZ
   axis XYZ
   position 0 0 0  
   orientation 0 0 0 
:bonedata
  begin
     id 1 
     name lhipjoint
     direction 0.577973 -0.728611 0.367523 
     length 2.48544 
     axis 0 0 0  XYZ
  end
  begin
     id 2 
     name lfemur
     direction 0.34202 -0.939693 0  
     length 7.1921  
     axis 0 0 20  XYZ
    dof rx ry rz
    limits (-160.0 20.0)
           (-70.0 70.0)
           (-60.0 70.0)
  end
  begin
     id 3 
     name ltibia
     direction 0.34202 -0.939693 0   
     length 7.71059   
     axis 0 0 20   XYZ
    dof rx
    limits (-10.0 170.0)
  end
  begin
     id 4 
     name lfoot
     direction 0.089538 -0.246004 0.965124   
     length 2.19909   
     axis -90 7.62852e-016 20   XYZ
    dof rx rz
    limits (-45.0 90.0)
           (-70.0 20.0)
  end
  begin
     id 5 
     name ltoes
     direction 1.53544e-011 -4.21829e-011 1   
     length 1.10116   
     axis -90 7.62852e-016 20   XYZ
    dof rx
    limits (-90.0 20.0)
  end
  begin
     id 6 
     name rhipjoint
     direction -0.554414 -0.743062 0.374812   
     length 2.4371  
     axis 0 0 0  XYZ 
  end
  begin
     id 7 
     name rfemur
     direction -0.34202 -0.939693 0   
     length 7.47254   
     axis 0 0 -20   XYZ
    dof rx ry rz
    limits (-160.0 20.0)
           (-70.0 70.0)
           (-70.0 60.0)
  end
  begin
     id 8 
     name rtibia
     direction -0.34202 -0.939693 0   
     length 7.65855   
     axis 0 0 -20   XYZ
    dof rx
    limits (-10.0 170.0)
 end
 begin
     id 9 
     name rfoot
     direction -0.133779 -0.367555 0.92033   
     length 2.43006  
     axis -90 -7.62852e-016 -20   XYZ
    dof rx rz
    limits (-45.0 90.0)
           (-20.0 70.0)
  end
  begin
     id 10 
     name rtoes
     direction -1.53563e-011 -4.21889e-011 1   
     length 1.19625   
     axis -90 -7.62852e-016 -20   XYZ
    dof rx
    limits (-90.0 20.0)
  end
  begin
     id 11 
     name lowerback
     direction 0.0249066 0.998043 -0.0573585   
     length 2.08485   
     axis 0 0 0   XYZ
    dof rx ry rz
    limits (-20.0 45.0)
           (-30.0 30.0)
           (-30.0 30.0)
  end
  begin
     id 12 
     name upperback
     direction 0.0237884 0.999673 0.00943178   
     length 2.08515   
     axis 0 0 0   XYZ
    dof rx ry rz
    limits (-20.0 45.0)
           (-30.0 30.0)
           (-30.0 30.0)
  end
  begin
     id 13 
     name thorax
     direction 0.0106671 0.999301 0.0358174   
     length 2.09037   
     axis 0 0 0   XYZ
    dof rx ry rz
    limits (-20.0 45.0)
           (-30.0 30.0)
           (-30.0 30.0)
  end
  begin
     id 14 
     name lowerneck
     direction -0.0580016 0.987052 0.149546   
     length 1.84454   
     axis 0 0 0   XYZ
    dof rx ry rz
    limits (-20.0 45.0)
           (-30.0 30.0)
           (-30.0 30.0)
  end
  begin
     id 15 
     name upperneck
     direction 0.079456 0.981963 -0.171567   
     length 1.88141   
     axis 0 0 0   XYZ
    dof rx ry rz
    limits (-20.0 45.0)
           (-30.0 30.0)
           (-30.0 30.0)
  end
  begin
     id 16
     name head
     direction 0.0262167 0.9967 -0.0768276  
     length 1.89541  
     axis 0 0 0   XYZ
    dof rx ry rz
    limits (-20.0 45.0)
           (-30.0 30.0)
           (-30.0 30.0)
  end
  begin
     id 17 
     name lclavicle
     direction 0.946135 0.322134 -0.0325326  
     length 3.949  
     axis 0 0 0   XYZ
    dof ry rz
    limits (-20.0 10.0)
           (0.0 20.0)
  end
  begin
     id 18 
     name lhumerus
     direction 1 -4.48964e-011 1.94005e-028   
     length 5.10995   
     axis 180 -30 -90   XYZ
    dof rx ry rz
    limits (-60.0 90.0)
           (-90.0 90.0)
           (-90.0 90.0)
  end
  begin
     id 19
     name lradius
     direction 1 -4.48976e-011 2.87852e-027   
     length 3.21207   
     axis 180 -30 -90   XYZ
    dof rx
    limits (-10.0 170.0)
  end
  begin
     id 20
     name lwrist
     direction 1 -4.48963e-011 1.9975e-027   
     length 1.60604   
     axis 2.96054e-016 90 90   XYZ
    dof ry
    limits (-180.0 0.0)
 end
  begin
     id 21 
     name lhand
     direction 1 -4.48919e-011 4.00227e-027   
     length 0.63349   
     axis -2.5488e-015 90 90   XYZ
    dof rx rz
    limits (-90.0 90.0)
           (-45.0 45.0)
  end
  begin
     id 22 
     name lfingers
     direction 1 -4.49037e-011 7.9652e-027   
     length 0.510736   
     axis -5.0975e-015 90 90   XYZ
    dof rx
    limits (0.0 90.0)
  end
  begin
     id 23
     name lthumb
     direction 0.707107 -6.34922e-011 0.707107   
     length 0.733318   
     axis -90 45 -4.48553e-014   XYZ
    dof rx rz
    limits (-45.0 45.0)
           (-45.0 45.0)
  end
  begin
     id 24 
     name rclavicle
     direction -0.940085 0.328911 -0.0897654   
     length 3.93848  
     axis 0 0 0   XYZ 
    dof ry rz
    limits (-10.0 20.0)
           (-20.0 0.0)
  end
  begin
     id 25 
     name rhumerus
     direction -1 -4.48958e-011 3.02044e-027  
     length 5.25109   
     axis 180 30 90   XYZ
    dof rx ry rz
    limits (-90.0 60.0)
           (-90.0 90.0)
           (-90.0 90.0)
  end
  begin
     id 26 
     name rradius
     direction -1 -4.4897e-011 9.78352e-028   
     length 3.28364   
     axis 180 30 90   XYZ
    dof rx
    limits (-10.0 170.0)
  end
  begin
     id 27 
     name rwrist
     direction -1 -4.48943e-011 1.99918e-027   
     length 1.64182   
     axis 2.96054e-016 -90 -90   XYZ
    dof ry
    limits (-180.0 0.0)
  end
  begin
     id 28
     name rhand
     direction -1 -4.49024e-011 3.98478e-027   
     length 0.599745   
     axis -2.5488e-015 -90 -90   XYZ
    dof rx rz
    limits (-90.0 90.0)
           (-45.0 45.0)
  end
  begin
     id 29
     name rfingers
     direction -1 -4.48914e-011 8.00621e-027   
     length 0.48353   
     axis -5.0975e-015 -90 -90   XYZ
    dof rx
    limits (0.0 90.0)
  end
  begin
     id 30
     name rthumb
     direction -0.707107 -6.34992e-011 0.707107   
     length 0.694255   
     axis -90 -45 4.48553e-014   XYZ
    dof rx rz
    limits (-45.0 45.0)
           (-45.0 45.0)
  end
:hierarchy
  begin
    root lhipjoint rhipjoint lowerback
    lhipjoint lfemur
    lfemur ltibia
    ltibia lfoot
    lfoot ltoes
    rhipjoint rfemur
    rfemur rtibia
    rtibia rfoot
    rfoot rtoes
    lowerback upperback
    upperback thorax
    thorax lowerneck lclavicle rclavicle
    lowerneck upperneck
    upperneck head
    lclavicle lhumerus
    lhumerus lradius
    lradius lwrist
    lwrist lhand lthumb
    lhand lfingers
    rclavicle rhumerus
    rhumerus rradius
    rradius rwrist
    rwrist rhand rthumb
    rhand rfingers
  end

#!OML:ASF E:\CV Data\Top Level 1\Subject 1\Session 1\player.ASF
:FULLY-SPECIFIED
:DEGREES
50
root 9.95374 16.8092 -8.61 -170.375 -75.2129 -179.809
lowerback 16.4537 0.139924 -0.641062
upperback 3.97279 -0.0838763 1.48951
thorax -4.97922 -0.136837 1.96569
lowerneck -15.8075 13.0404 -4.0044
upperneck 7.87339 18.1648 0.855642
head 4.42758 8.86029 2.28498
rclavicle -5.82439e-014 2.90226e-014
rhumerus -13.6196 11.8095 -76.1152
rradius 118.698
rwrist -31.4835
rhand -29.4871 9.173
rfingers 7.12502
rthumb -2.82211 -20.7881
lclavicle -5.82439e-014 2.90226e-014
lhumerus 35.9025 -63.6626 78.2592
lradius 63.2061
lwrist -0.571413
lhand -27.6944 6.93795
lfingers 7.12502
lthumb -1.09078 36.9149
rfemur -38.0999 4.69735 12.0693
rtibia 49.4807
rfoot -20.7278 -1.5312
rtoes -5.69608
lfemur -26.3343 17.0631 -9.5322
ltibia 38.0075
lfoot -13.0633 2.95384
ltoes -13.321
51
root 9.95385 16.808 -8.62181 -170.46 -75.1441 -179.744
lowerback 16.451 0.170865 -0.63558
upperback 4.01233 -0.0475015 1.4454
thorax -4.93726 -0.120656 1.90813
lowerneck -15.7489 13.3355 -3.90204
upperneck 8.01205 18.5565 0.731092
head 4.47207 9.04355 2.26576
rclavicle 6.95746e-015 -1.15295e-014
rhumerus -13.5813 11.5866 -75.9521
rradius 119.207
rwrist -30.9534
rhand -29.7155 9.38362
rfingers 7.12502
rthumb -3.04271 -20.5744
lclavicle 6.95746e-015 -1.15295e-014
lhumerus 36.5353 -63.8701 77.8327
lradius 63.3604
lwrist -0.945374
lhand -28.4368 6.71205
lfingers 7.12502
lthumb -1.80782 36.6841
rfemur -38.107 4.73951 12.137
rtibia 49.5283
rfoot -20.7505 -1.52111
rtoes -5.65501
lfemur -26.2509 17.0358 -9.45265
ltibia 37.976
lfoot -13.0413 3.04617
ltoes -13.3725
52
root 9.95411 16.807 -8.63423 -170.524 -75.0925 -179.697
lowerback 16.4479 0.202831 -0.612851
upperback 4.04928 -0.00694021 1.39634
thorax -4.89789 -0.102435 1.83474
lowerneck -15.6891 13.6345 -3.7979
upperneck 8.16978 18.9539 0.608038
head 4.52315 9.22906 2.24863
rclavicle 9.74045e-015 7.95139e-015
rhumerus -13.5417 11.3502 -75.7887
rradius 119.698
rwrist -30.4698
rhand -29.923 9.58392
rfingers 7.12502
rthumb -3.24308 -20.3712
lclavicle 9.74045e-015 7.95139e-015
lhumerus 37.1308 -64.0722 77.4421
lradius 63.531
lwrist -1.26082
lhand -29.1093 6.4786
lfingers 7.12502
lthumb -2.45723 36.4442
rfemur -38.1121 4.75994 12.2051
rtibia 49.5732
rfoot -20.7752 -1.50869
rtoes -5.61878
lfemur -26.1752 16.9991 -9.37749
ltibia 37.9409
lfoot -13.0148 3.13353
ltoes -13.4171
53
root 9.95455 16.806 -8.64751 -170.565 -75.0481 -179.671
lowerback 16.4454 0.238516 -0.586093
upperback 4.0834 0.0391522 1.34247
thorax -4.86197 -0.0813726 1.75292
lowerneck -15.6182 13.9375 -3.67846
upperneck 8.32486 19.354 0.483991
head 4.57406 9.4162 2.22919
rclavicle -2.18663e-015 -1.35174e-014
rhumerus -13.5033 11.112 -75.6312
rradius 120.171
rwrist -30.0111
rhand -30.1195 9.77542
rfingers 7.12502
rthumb -3.43288 -20.1767
lclavicle -2.18663e-015 -1.35174e-014
lhumerus 37.7017 -64.2645 77.0694
lradius 63.7131
lwrist -1.52986
lhand -29.7026 6.24471
lfingers 7.12502
lthumb -3.03026 36.2029
rfemur -38.1181 4.76807 12.2712
rtibia 49.6175
rfoot -20.8015 -1.48731
rtoes -5.56342
lfemur -26.1044 16.9704 -9.30737
ltibia 37.9026
lfoot -12.9866 3.20687
ltoes -13.4446
54
root 9.95523 16.8049 -8.66159 -170.606 -75.014 -179.644
lowerback 16.4476 0.278666 -0.543489
upperback 4.11452 0.0935192 1.28105
thorax -4.83183 -0.0562308 1.65255
lowerneck -15.5511 14.2414 -3.53816
upperneck 8.50267 19.7506 0.375786
head 4.63405 9.60246 2.21367
rclavicle 1.32192e-014 1.82882e-014
rhumerus -13.4721 10.8647 -75.4824
rradius 120.624
rwrist -29.5639
rhand -30.3167 9.96625
rfingers 7.12502
rthumb -3.62333 -19.9827
lclavicle 1.32192e-014 1.82882e-014
lhumerus 38.2728 -64.4595 76.6924
lradius 63.8928
lwrist -1.76346
lhand -30.2087 6.00707
lfingers 7.12502
lthumb -3.51899 35.9578
rfemur -38.1215 4.76129 12.3426
rtibia 49.6621
rfoot -20.8302 -1.45982
rtoes -5.52184
lfemur -26.0377 16.9564 -9.23603
ltibia 37.8617
lfoot -12.9575 3.25353
ltoes -13.4531
55
root 9.95613 16.8038 -8.6765 -170.649 -74.9932 -179.615
lowerback 16.454 0.32466 -0.474674
upperback 4.14056 0.159568 1.20657
thorax -4.80937 -0.0253298 1.52121
lowerneck -15.4763 14.5368 -3.38012
upperneck 8.68736 20.1295 0.293384
head 4.69532 9.78219 2.20249
rclavicle 4.07509e-014 -1.39149e-015
rhumerus -13.4624 10.597 -75.3502
rradius 121.061
rwrist -29.1098
rhand -30.5311 10.1538
rfingers 7.12502
rthumb -3.83031 -19.7915
lclavicle 4.07509e-014 -1.39149e-015
lhumerus 38.8628 -64.6755 76.2909
lradius 64.0623
lwrist -1.96701
lhand -30.6437 5.76604
lfingers 7.12502
lthumb -3.93908 35.7094
rfemur -38.1234 4.7381 12.4191
rtibia 49.7079
rfoot -20.8617 -1.42211
rtoes -5.47345
lfemur -25.9757 16.945 -9.16323
ltibia 37.817
lfoot -12.9248 3.28947
ltoes -13.4695
56
root 9.95725 16.8026 -8.69201 -170.663 -74.9856 -179.614
lowerback 16.4639 0.376877 -0.389822
upperback 4.16087 0.236211 1.11976
thorax -4.79468 0.0109089 1.36569
lowerneck -15.3958 14.8181 -3.208
upperneck 8.87103 20.484 0.234663
head 4.75559 9.95209 2.19469
rclavicle -1.37161e-014 2.74323e-014
rhumerus -13.4744 10.3082 -75.2335
rradius 121.487
rwrist -28.664
rhand -30.7623 10.3357
rfingers 7.12502
rthumb -4.05364 -19.6054
lclavicle -1.37161e-014 2.74323e-014
lhumerus 39.4792 -64.9114 75.8594
lradius 64.2182
lwrist -2.14369
lhand -31.0095 5.50849
lfingers 7.12502
lthumb -4.29229 35.445
rfemur -38.1271 4.69781 12.4911
rtibia 49.756
rfoot -20.8949 -1.37571
rtoes -5.42966
lfemur -25.9197 16.9306 -9.09801
ltibia 37.7675
lfoot -12.8887 3.31554
ltoes -13.484
57
root 9.95857 16.8016 -8.70838 -170.646 -74.9877 -179.64
lowerback 16.4742 0.437252 -0.284566
upperback 4.17489 0.326428 1.01382
thorax -4.78643 0.053928 1.17566
lowerneck -15.3086 15.0799 -3.02316
upperneck 9.05532 20.8058 0.208404
head 4.81412 10.1088 2.19214
rclavicle 3.73715e-014 8.34896e-015
rhumerus -13.5145 9.99269 -75.1423
rradius 121.905
rwrist -28.2285
rhand -31.0116 10.5024
rfingers 7.12502
rthumb -4.29432 -19.4341
lclavicle 3.73715e-014 8.34896e-015
lhumerus 40.1324 -65.1794 75.367
lradius 64.3677
lwrist -2.29182
lhand -31.3194 5.23252
lfingers 7.12502
lthumb -4.59151 35.1628
rfemur -38.135 4.64531 12.5592
rtibia 49.8068
rfoot -20.9287 -1.3208
rtoes -5.37621
lfemur -25.8672 16.9007 -9.03778
ltibia 37.7109
lfoot -12.8484 3.34716
ltoes -13.4905
58
root 9.96028 16.8007 -8.7259 -170.584 -74.9929 -179.705
lowerback 16.4799 0.50931 -0.17998
upperback 4.18284 0.431875 0.898586
thorax -4.78169 0.104678 0.973167
lowerneck -15.2097 15.31 -2.86582
upperneck 9.21246 21.0842 0.220914
head 4.85662 10.2475 2.19811
rclavicle -2.28602e-015 -6.16232e-015
rhumerus -13.5752 9.65928 -75.0622
rradius 122.316
rwrist -27.8193
rhand -31.2685 10.652
rfingers 7.12502
rthumb -4.54237 -19.2792
lclavicle -2.28602e-015 -6.16232e-015
lhumerus 40.8163 -65.468 74.8244
lradius 64.5202
lwrist -2.41333
lhand -31.5786 4.94629
lfingers 7.12502
lthumb -4.84181 34.871
rfemur -38.1548 4.58959 12.6204
rtibia 49.8611
rfoot -20.9614 -1.26302
rtoes -5.31399
lfemur -25.8216 16.8695 -8.98732
ltibia 37.6472
lfoot -12.8033 3.38248
ltoes -13.5189
59
root 9.96231 16.7999 -8.74416 -170.49 -75.0071 -179.798
lowerback 16.4868 0.588591 -0.0693733
upperback 4.18801 0.547718 0.779
thorax -4.7797 0.160561 0.760614
lowerneck -15.1112 15.511 -2.7205
upperneck 9.35687 21.326 0.232268
head 4.89526 10.3681 2.20213
rclavicle -1.11319e-014 -2.68359e-014
rhumerus -13.6486 9.31523 -74.9851
rradius 122.72
rwrist -27.4357
rhand -31.519 10.7889
rfingers 7.12502
rthumb -4.78425 -19.1371
lclavicle -1.11319e-014 -2.68359e-014
lhumerus 41.5371 -65.7676 74.2208
lradius 64.6871
lwrist -2.50233
lhand -31.7914 4.6624
lfingers 7.12502
lthumb -5.04733 34.5823
rfemur -38.179 4.52926 12.6754
rtibia 49.9172
rfoot -20.9928 -1.20296
rtoes -5.23272
lfemur -25.7805 16.8341 -8.94401
ltibia 37.5775
lfoot -12.756 3.41489
ltoes -13.5397
60
root 9.96466 16.7991 -8.76306 -170.379 -75.0336 -179.908
lowerback 16.497 0.668434 0.039882
upperback 4.19396 0.664208 0.664725
thorax -4.7777 0.216715 0.554345
lowerneck -15.0232 15.6884 -2.59315
upperneck 9.49766 21.5424 0.227913
head 4.93524 10.4744 2.20306
rclavicle 3.57812e-015 -1.25234e-014
rhumerus -13.7184 8.98419 -74.9014
rradius 123.11
rwrist -27.0843
rhand -31.7502 10.9123
rfingers 7.12502
rthumb -5.00756 -19.0085
lclavicle 3.57812e-015 -1.25234e-014
lhumerus 42.2804 -66.0529 73.5772
lradius 64.8647
lwrist -2.56525
lhand -31.9622 4.4005
lfingers 7.12502
lthumb -5.21223 34.3164
rfemur -38.2029 4.46495 12.7284
rtibia 49.9733
rfoot -21.0226 -1.15091
rtoes -5.15459
lfemur -25.7442 16.7936 -8.90381
ltibia 37.5057
lfoot -12.7082 3.4396
ltoes -13.5326
61
root 9.96719 16.7985 -8.7824 -170.283 -75.0754 -180.004
lowerback 16.5124 0.740121 0.140138
upperback 4.20604 0.769076 0.571476
thorax -4.77134 0.267019 0.377766
lowerneck -14.9455 15.8498 -2.50073
upperneck 9.61627 21.7486 0.188404
head 4.97087 10.5725 2.19742
rclavicle -2.98177e-015 2.5842e-014
rhumerus -13.7631 8.69955 -74.8048
rradius 123.481
rwrist -26.7638
rhand -31.9663 11.0305
rfingers 7.12502
rthumb -5.21618 -18.8854
lclavicle -2.98177e-015 2.5842e-014
lhumerus 43.0285 -66.2864 72.9176
lradius 65.0541
lwrist -2.60143
lhand -32.0977 4.16714
lfingers 7.12502
lthumb -5.34305 34.0798
rfemur -38.2185 4.39518 12.7867
rtibia 50.0259
rfoot -21.051 -1.10568
rtoes -5.06921
lfemur -25.7094 16.7409 -8.8581
ltibia 37.4354
lfoot -12.661 3.46299
ltoes -13.4949
62
root 9.9699 16.7978 -8.8018 -170.221 -75.1366 -180.07
lowerback 16.5363 0.799304 0.238502
upperback 4.22284 0.857876 0.498595
thorax -4.76416 0.309282 0.226992
lowerneck -14.8923 16.005 -2.42167
upperneck 9.73808 21.9533 0.125962
head 5.01302 10.667 2.18955
rclavicle 6.65929e-015 -7.35503e-015
rhumerus -13.7812 8.46716 -74.6977
rradius 123.828
rwrist -26.479
rhand -32.1639 11.148
rfingers 7.12502
rthumb -5.40697 -18.763
lclavicle 6.65929e-015 -7.35503e-015
lhumerus 43.7871 -66.4672 72.2431
lradius 65.2432
lwrist -2.59877
lhand -32.2085 3.96711
lfingers 7.12502
lthumb -5.45002 33.877
rfemur -38.2232 4.31825 12.8553
rtibia 50.0736
rfoot -21.0786 -1.07394
rtoes -5.01033
lfemur -25.6789 16.6711 -8.80252
ltibia 37.3704
lfoot -12.6139 3.48839
ltoes -13.4421
63
root 9.97289 16.7972 -8.8214 -170.212 -75.2203 -180.085
lowerback 16.5672 0.84345 0.334177
upperback 4.24382 0.927443 0.449543
thorax -4.75608 0.342002 0.106753
lowerneck -14.8572 16.1557 -2.34514
upperneck 9.8622 22.1582 0.0295222
head 5.06288 10.7584 2.17489
rclavicle 3.67752e-015 2.78299e-014
rhumerus -13.7702 8.29368 -74.5836
rradius 124.147
rwrist -26.2202
rhand -32.3483 11.265
rfingers 7.12502
rthumb -5.58505 -18.6414
lclavicle 3.67752e-015 2.78299e-014
lhumerus 44.5367 -66.5902 71.5821
lradius 65.4201
lwrist -2.56632
lhand -32.3053 3.80512
lfingers 7.12502
lthumb -5.54346 33.7126
rfemur -38.2183 4.23506 12.9393
rtibia 50.1163
rfoot -21.1051 -1.0527
rtoes -4.95456
lfemur -25.6554 16.5747 -8.72979
ltibia 37.3127
lfoot -12.5662 3.52104
ltoes -13.352
